G75*
%MOIN*%
%OFA0B0*%
%FSLAX25Y25*%
%IPPOS*%
%LPD*%
%AMOC8*
5,1,8,0,0,1.08239X$1,22.5*
%
%ADD10C,0.01600*%
%ADD11C,0.00600*%
%ADD12C,0.00300*%
D10*
X0030933Y0001800D02*
X0030933Y0018800D01*
X0013933Y0018800D01*
D11*
X0019433Y0007300D02*
X0021433Y0007300D01*
X0019433Y0007300D02*
X0019433Y0009300D01*
X0026433Y0007300D02*
X0028433Y0007300D01*
X0028433Y0009300D01*
X0033724Y0010800D02*
X0033724Y0016800D01*
X0044142Y0016800D01*
X0044142Y0010800D01*
X0033724Y0010800D01*
X0028433Y0014300D02*
X0028433Y0016300D01*
X0026433Y0016300D01*
X0021433Y0016300D02*
X0019433Y0016300D01*
X0019433Y0014300D01*
X0031933Y0018800D02*
X0031933Y0024800D01*
X0029933Y0021591D02*
X0023933Y0021591D01*
X0023933Y0032009D01*
X0029933Y0032009D01*
X0029933Y0021591D01*
X0031933Y0018800D02*
X0037433Y0018800D01*
X0040433Y0018800D02*
X0045933Y0018800D01*
X0045933Y0024800D01*
X0050933Y0021591D02*
X0056933Y0021591D01*
X0056933Y0032009D01*
X0050933Y0032009D01*
X0050933Y0021591D01*
X0060921Y0023847D02*
X0060921Y0029753D01*
X0059142Y0033800D02*
X0059142Y0039800D01*
X0048724Y0039800D01*
X0048724Y0033800D01*
X0059142Y0033800D01*
X0061224Y0036300D02*
X0071642Y0036300D01*
X0071642Y0042300D01*
X0061224Y0042300D01*
X0061224Y0036300D01*
X0071945Y0029753D02*
X0071945Y0023847D01*
X0076224Y0028800D02*
X0086642Y0028800D01*
X0086642Y0034800D01*
X0076224Y0034800D01*
X0076224Y0028800D01*
X0062299Y0025300D02*
X0062301Y0025339D01*
X0062307Y0025378D01*
X0062317Y0025416D01*
X0062330Y0025453D01*
X0062347Y0025488D01*
X0062367Y0025522D01*
X0062391Y0025553D01*
X0062418Y0025582D01*
X0062447Y0025608D01*
X0062479Y0025631D01*
X0062513Y0025651D01*
X0062549Y0025667D01*
X0062586Y0025679D01*
X0062625Y0025688D01*
X0062664Y0025693D01*
X0062703Y0025694D01*
X0062742Y0025691D01*
X0062781Y0025684D01*
X0062818Y0025673D01*
X0062855Y0025659D01*
X0062890Y0025641D01*
X0062923Y0025620D01*
X0062954Y0025595D01*
X0062982Y0025568D01*
X0063007Y0025538D01*
X0063029Y0025505D01*
X0063048Y0025471D01*
X0063063Y0025435D01*
X0063075Y0025397D01*
X0063083Y0025359D01*
X0063087Y0025320D01*
X0063087Y0025280D01*
X0063083Y0025241D01*
X0063075Y0025203D01*
X0063063Y0025165D01*
X0063048Y0025129D01*
X0063029Y0025095D01*
X0063007Y0025062D01*
X0062982Y0025032D01*
X0062954Y0025005D01*
X0062923Y0024980D01*
X0062890Y0024959D01*
X0062855Y0024941D01*
X0062818Y0024927D01*
X0062781Y0024916D01*
X0062742Y0024909D01*
X0062703Y0024906D01*
X0062664Y0024907D01*
X0062625Y0024912D01*
X0062586Y0024921D01*
X0062549Y0024933D01*
X0062513Y0024949D01*
X0062479Y0024969D01*
X0062447Y0024992D01*
X0062418Y0025018D01*
X0062391Y0025047D01*
X0062367Y0025078D01*
X0062347Y0025112D01*
X0062330Y0025147D01*
X0062317Y0025184D01*
X0062307Y0025222D01*
X0062301Y0025261D01*
X0062299Y0025300D01*
X0045933Y0028800D02*
X0045933Y0034800D01*
X0040433Y0034800D01*
X0037433Y0034800D02*
X0031933Y0034800D01*
X0031933Y0028800D01*
X0028433Y0037300D02*
X0026433Y0037300D01*
X0028433Y0037300D02*
X0028433Y0039300D01*
X0021433Y0037300D02*
X0019433Y0037300D01*
X0019433Y0039300D01*
X0019433Y0044300D02*
X0019433Y0046300D01*
X0021433Y0046300D01*
X0026433Y0046300D02*
X0028433Y0046300D01*
X0028433Y0044300D01*
X0079433Y0044300D02*
X0079433Y0046300D01*
X0081433Y0046300D01*
X0086433Y0046300D02*
X0088433Y0046300D01*
X0088433Y0044300D01*
X0088433Y0039300D02*
X0088433Y0037300D01*
X0086433Y0037300D01*
X0081433Y0037300D02*
X0079433Y0037300D01*
X0079433Y0039300D01*
X0079433Y0016300D02*
X0079433Y0014300D01*
X0079433Y0016300D02*
X0081433Y0016300D01*
X0086433Y0016300D02*
X0088433Y0016300D01*
X0088433Y0014300D01*
X0088433Y0009300D02*
X0088433Y0007300D01*
X0086433Y0007300D01*
X0081433Y0007300D02*
X0079433Y0007300D01*
X0079433Y0009300D01*
D12*
X0068518Y0015750D02*
X0066583Y0015750D01*
X0067551Y0015750D02*
X0067551Y0018652D01*
X0066583Y0017685D01*
X0065572Y0018652D02*
X0065572Y0016234D01*
X0065088Y0015750D01*
X0064120Y0015750D01*
X0063637Y0016234D01*
X0063637Y0018652D01*
X0056018Y0017250D02*
X0054083Y0017250D01*
X0055051Y0017250D02*
X0055051Y0020152D01*
X0054083Y0019185D01*
X0053072Y0019669D02*
X0053072Y0018701D01*
X0052588Y0018217D01*
X0051137Y0018217D01*
X0051137Y0017250D02*
X0051137Y0020152D01*
X0052588Y0020152D01*
X0053072Y0019669D01*
X0052104Y0018217D02*
X0053072Y0017250D01*
X0047983Y0015885D02*
X0047983Y0013950D01*
X0047983Y0014917D02*
X0045081Y0014917D01*
X0046048Y0013950D01*
X0045564Y0012938D02*
X0045081Y0012455D01*
X0045081Y0011487D01*
X0045564Y0011003D01*
X0047499Y0011003D01*
X0047983Y0011487D01*
X0047983Y0012455D01*
X0047499Y0012938D01*
X0022783Y0024487D02*
X0022299Y0024003D01*
X0020364Y0024003D01*
X0019881Y0024487D01*
X0019881Y0025455D01*
X0020364Y0025938D01*
X0020364Y0026950D02*
X0019881Y0027434D01*
X0019881Y0028401D01*
X0020364Y0028885D01*
X0020848Y0028885D01*
X0022783Y0026950D01*
X0022783Y0028885D01*
X0022299Y0025938D02*
X0022783Y0025455D01*
X0022783Y0024487D01*
X0034663Y0035950D02*
X0036598Y0038852D01*
X0037610Y0038852D02*
X0039545Y0038852D01*
X0038577Y0038852D02*
X0038577Y0035950D01*
X0036598Y0035950D02*
X0034663Y0038852D01*
X0040556Y0037885D02*
X0041524Y0038852D01*
X0041524Y0035950D01*
X0042491Y0035950D02*
X0040556Y0035950D01*
X0051137Y0040950D02*
X0051137Y0043852D01*
X0052588Y0043852D01*
X0053072Y0043369D01*
X0053072Y0042401D01*
X0052588Y0041917D01*
X0051137Y0041917D01*
X0052104Y0041917D02*
X0053072Y0040950D01*
X0054083Y0040950D02*
X0056018Y0042885D01*
X0056018Y0043369D01*
X0055534Y0043852D01*
X0054567Y0043852D01*
X0054083Y0043369D01*
X0054083Y0040950D02*
X0056018Y0040950D01*
X0063637Y0043934D02*
X0064120Y0043450D01*
X0065088Y0043450D01*
X0065572Y0043934D01*
X0066583Y0043934D02*
X0067067Y0043450D01*
X0068034Y0043450D01*
X0068518Y0043934D01*
X0068518Y0044417D01*
X0068034Y0044901D01*
X0067551Y0044901D01*
X0068034Y0044901D02*
X0068518Y0045385D01*
X0068518Y0045869D01*
X0068034Y0046352D01*
X0067067Y0046352D01*
X0066583Y0045869D01*
X0065572Y0045869D02*
X0065088Y0046352D01*
X0064120Y0046352D01*
X0063637Y0045869D01*
X0063637Y0043934D01*
X0078637Y0027652D02*
X0080088Y0027652D01*
X0080572Y0027169D01*
X0080572Y0026201D01*
X0080088Y0025717D01*
X0078637Y0025717D01*
X0079604Y0025717D02*
X0080572Y0024750D01*
X0081583Y0025234D02*
X0082067Y0024750D01*
X0083034Y0024750D01*
X0083518Y0025234D01*
X0083518Y0025717D01*
X0083034Y0026201D01*
X0082551Y0026201D01*
X0083034Y0026201D02*
X0083518Y0026685D01*
X0083518Y0027169D01*
X0083034Y0027652D01*
X0082067Y0027652D01*
X0081583Y0027169D01*
X0078637Y0027652D02*
X0078637Y0024750D01*
M02*
