G75*
%MOIN*%
%OFA0B0*%
%FSLAX25Y25*%
%IPPOS*%
%LPD*%
%AMOC8*
5,1,8,0,0,1.08239X$1,22.5*
%
%ADD10OC8,0.08500*%
%ADD11C,0.01600*%
%ADD12OC8,0.02375*%
D10*
X0023933Y0011800D03*
X0023933Y0041800D03*
X0083933Y0041800D03*
X0083933Y0011800D03*
D11*
X0015733Y0003600D02*
X0015733Y0050000D01*
X0092133Y0050000D01*
X0092133Y0003600D01*
X0015733Y0003600D01*
X0015733Y0004997D02*
X0092133Y0004997D01*
X0092133Y0006596D02*
X0087285Y0006596D01*
X0086439Y0005750D02*
X0089983Y0009294D01*
X0089983Y0011600D01*
X0084133Y0011600D01*
X0084133Y0005750D01*
X0086439Y0005750D01*
X0084133Y0006596D02*
X0083733Y0006596D01*
X0083733Y0005750D02*
X0081427Y0005750D01*
X0077883Y0009294D01*
X0077883Y0011600D01*
X0083733Y0011600D01*
X0083733Y0012000D01*
X0077883Y0012000D01*
X0077883Y0014306D01*
X0081427Y0017850D01*
X0083733Y0017850D01*
X0083733Y0012000D01*
X0084133Y0012000D01*
X0084133Y0017850D01*
X0086439Y0017850D01*
X0089983Y0014306D01*
X0089983Y0012000D01*
X0084133Y0012000D01*
X0084133Y0011600D01*
X0083733Y0011600D01*
X0083733Y0005750D01*
X0080582Y0006596D02*
X0027285Y0006596D01*
X0026439Y0005750D02*
X0029983Y0009294D01*
X0029983Y0014306D01*
X0026439Y0017850D01*
X0021427Y0017850D01*
X0017883Y0014306D01*
X0017883Y0009294D01*
X0021427Y0005750D01*
X0026439Y0005750D01*
X0028883Y0008194D02*
X0078983Y0008194D01*
X0077883Y0009793D02*
X0029983Y0009793D01*
X0029983Y0011391D02*
X0077883Y0011391D01*
X0077883Y0012990D02*
X0029983Y0012990D01*
X0029701Y0014588D02*
X0078165Y0014588D01*
X0079764Y0016187D02*
X0028102Y0016187D01*
X0026504Y0017785D02*
X0081362Y0017785D01*
X0083733Y0017785D02*
X0084133Y0017785D01*
X0086504Y0017785D02*
X0092133Y0017785D01*
X0092133Y0019384D02*
X0015733Y0019384D01*
X0015733Y0020982D02*
X0092133Y0020982D01*
X0092133Y0022581D02*
X0015733Y0022581D01*
X0015733Y0024179D02*
X0092133Y0024179D01*
X0092133Y0025778D02*
X0015733Y0025778D01*
X0015733Y0027376D02*
X0092133Y0027376D01*
X0092133Y0028975D02*
X0015733Y0028975D01*
X0015733Y0030573D02*
X0092133Y0030573D01*
X0092133Y0032172D02*
X0015733Y0032172D01*
X0015733Y0033770D02*
X0092133Y0033770D01*
X0092133Y0035369D02*
X0015733Y0035369D01*
X0015733Y0036967D02*
X0020210Y0036967D01*
X0021427Y0035750D02*
X0026439Y0035750D01*
X0029983Y0039294D01*
X0029983Y0044306D01*
X0026439Y0047850D01*
X0021427Y0047850D01*
X0017883Y0044306D01*
X0017883Y0039294D01*
X0021427Y0035750D01*
X0018611Y0038566D02*
X0015733Y0038566D01*
X0015733Y0040164D02*
X0017883Y0040164D01*
X0017883Y0041763D02*
X0015733Y0041763D01*
X0015733Y0043361D02*
X0017883Y0043361D01*
X0018537Y0044960D02*
X0015733Y0044960D01*
X0015733Y0046558D02*
X0020135Y0046558D01*
X0015733Y0048157D02*
X0092133Y0048157D01*
X0092133Y0049755D02*
X0015733Y0049755D01*
X0027731Y0046558D02*
X0080135Y0046558D01*
X0081427Y0047850D02*
X0077883Y0044306D01*
X0077883Y0039294D01*
X0081427Y0035750D01*
X0086439Y0035750D01*
X0089983Y0039294D01*
X0089983Y0044306D01*
X0086439Y0047850D01*
X0081427Y0047850D01*
X0078537Y0044960D02*
X0029329Y0044960D01*
X0029983Y0043361D02*
X0077883Y0043361D01*
X0077883Y0041763D02*
X0029983Y0041763D01*
X0029983Y0040164D02*
X0077883Y0040164D01*
X0078611Y0038566D02*
X0029255Y0038566D01*
X0027656Y0036967D02*
X0080210Y0036967D01*
X0087656Y0036967D02*
X0092133Y0036967D01*
X0092133Y0038566D02*
X0089255Y0038566D01*
X0089983Y0040164D02*
X0092133Y0040164D01*
X0092133Y0041763D02*
X0089983Y0041763D01*
X0089983Y0043361D02*
X0092133Y0043361D01*
X0092133Y0044960D02*
X0089329Y0044960D01*
X0087731Y0046558D02*
X0092133Y0046558D01*
X0092133Y0016187D02*
X0088102Y0016187D01*
X0089701Y0014588D02*
X0092133Y0014588D01*
X0092133Y0012990D02*
X0089983Y0012990D01*
X0089983Y0011391D02*
X0092133Y0011391D01*
X0092133Y0009793D02*
X0089983Y0009793D01*
X0088883Y0008194D02*
X0092133Y0008194D01*
X0084133Y0008194D02*
X0083733Y0008194D01*
X0083733Y0009793D02*
X0084133Y0009793D01*
X0084133Y0011391D02*
X0083733Y0011391D01*
X0083733Y0012990D02*
X0084133Y0012990D01*
X0084133Y0014588D02*
X0083733Y0014588D01*
X0083733Y0016187D02*
X0084133Y0016187D01*
X0021362Y0017785D02*
X0015733Y0017785D01*
X0015733Y0016187D02*
X0019764Y0016187D01*
X0018165Y0014588D02*
X0015733Y0014588D01*
X0015733Y0012990D02*
X0017883Y0012990D01*
X0017883Y0011391D02*
X0015733Y0011391D01*
X0015733Y0009793D02*
X0017883Y0009793D01*
X0018983Y0008194D02*
X0015733Y0008194D01*
X0015733Y0006596D02*
X0020582Y0006596D01*
D12*
X0036433Y0006800D03*
X0048933Y0006800D03*
X0061433Y0006800D03*
X0073933Y0006800D03*
X0078933Y0021800D03*
X0088933Y0021800D03*
X0088933Y0031800D03*
X0073933Y0036800D03*
X0073933Y0046800D03*
X0061433Y0046800D03*
X0048933Y0046800D03*
X0036433Y0046800D03*
X0018933Y0034300D03*
X0018933Y0021800D03*
X0048933Y0029300D03*
M02*
